# xmcd
#
# Track frame offsets: 
#        183
#        13118
#        25645
#        37785
#        53510
#        66743
#        79668
#        92780
#        106703
#        116940
#        134193
#        147568
#        158893
#        167625
#        182070
#        187005
#        202903
#
# Disc length: 2798 seconds
#
# Revision: 2
# Processed by: cddbd v1.5.2PL0 Copyright (c) Steve Scherf et al.
# Submitted via: ExactAudioCopy v0.99pb4
#
DISCID=ec0aec11
DTITLE=Woody Guthrie - Pete Seeger - 16 Great Songs
DYEAR=1990
DGENRE=Folk
TTITLE0=Woody Guthrie - Gipsy Davy
TTITLE1=Woody Guthrie - Hey Lolly Lolly
TTITLE2=Woody Guthrie - John Henry
TTITLE3=Woody Guthrie - Ain´t Gonna Be Treated This Way
TTITLE4=Woody Guthrie - Rangers Command
TTITLE5=Woody Guthrie - Poor Boy
TTITLE6=Woody Guthrie - Lonesome Day
TTITLE7=Woody Guthrie - Pretty Boy Floyd
TTITLE8=Pete Seeger - The Greenland Fisheries
TTITLE9=Pete Seeger - Go Down Old Hannah
TTITLE10=Pete Seeger - Ariran
TTITLE11=Pete Seeger - Die Gedanken sind frei
TTITLE12=Pete Seeger - Bayeza
TTITLE13=Pete Seeger - Kisses Sweater Than Wine
TTITLE14=Pete Seeger - Winnsboro Cotton Mill Blues
TTITLE15=Pete Seeger - The House Carpenter
TTITLE16=Pete Seeger - Three Courting Songs
EXTD=
EXTT0=
EXTT1=
EXTT2=
EXTT3=
EXTT4=
EXTT5=
EXTT6=
EXTT7=
EXTT8=
EXTT9=
EXTT10=
EXTT11=
EXTT12=
EXTT13=
EXTT14=
EXTT15=
EXTT16=
PLAYORDER=
